<?xml version="1.0" encoding="utf-8"?>
<!-- Generator: Adobe Illustrator 18.0.0, SVG Export Plug-In . SVG Version: 6.00 Build 0)  -->
<svg version="1.2" baseProfile="tiny" id="Layer_1" xmlns="http://www.w3.org/2000/svg" xmlns:xlink="http://www.w3.org/1999/xlink"
	 x="0px" y="0px" viewBox="0 0 536.9 127.7" xml:space="preserve">
<g>
	<path fill="#5C2B82" d="M0.2,127.7c0-42.1,0-84.2,0-126.4c0-0.9,0.2-1.1,1.1-1.1c178.5,0,357,0,535.6,0c0,0.5,0,1,0,1.6
		c0,11,0,22.1,0,33.1c0,30.4,0,60.9,0,91.3c0,1.1-0.3,1.6-1.5,1.5c-0.2,0-0.3,0-0.5,0C356.7,127.7,178.5,127.7,0.2,127.7z
		 M374.7,58.8c0.2,0.6,0.3,0.9,0.4,1.3c2.7,10.9,5.4,21.8,8,32.7c0.7,2.8,2.4,4.3,5.2,4.8c3.3,0.6,7.4-0.5,8.5-5.3
		c1.8-8.5,4-17,6.1-25.5c2.4-9.9,4.8-19.8,7.1-29.7c0.8-3.2-1.1-5.9-4.3-6.6c-3.4-0.7-6.3,0.9-7,4.1c-2.6,11.5-5.1,23-7.7,34.5
		c-0.3,1.3-0.6,2.6-0.9,3.9c-3.2-12.7-6.3-25.4-9.4-38.1c-0.7-3.1-2.7-4.6-5.8-4.7c-3,0-5.2,1.6-5.9,4.6c-2.1,8.7-4.2,17.5-6.3,26.2
		c-1,4-1.9,8-3,12.3c-0.2-0.7-0.3-1.1-0.4-1.5c-2.8-12.3-5.5-24.7-8.3-37c-0.8-3.5-3.6-5.2-7.1-4.4c-3.4,0.8-5,3.5-4.2,7
		c4.4,18.4,8.9,36.9,13.3,55.3c0.8,3.3,3.1,5,6.7,4.9c3.6,0,5.9-1.7,6.7-4.9c1.9-7.6,3.8-15.3,5.6-22.9
		C372.9,66.3,373.8,62.7,374.7,58.8z M54,58.3c-0.6,3.1-1.3,6.1-1.8,9.2c-0.2,1.1-0.7,1.4-1.7,1.3c-2.5-0.1-5,0-7.4,0
		c-2.7,0-4.8,1.5-5.4,3.9c-1,3.8,1.5,7,5.4,7.1c2,0.1,3.9,0,5.9,0c0.7,0,1,0.1,0.8,0.9c-0.7,3.4-1.3,6.8-1.9,10.2
		c-0.6,3.3,1.2,6,4.6,6.7c3.4,0.7,6.3-1.2,6.9-4.5c0.7-4.1,1.5-8.2,2.1-12.3c0.1-0.7,0.3-1.1,1.2-1.1c2.6,0.1,5.3,0.1,7.9,0
		c0.9,0,1.1,0.2,0.9,1.1c-0.7,3.5-1.3,7-2,10.5c-0.4,2.3,0.6,4.3,2.6,5.5c3.1,1.8,8.5,1,9.1-4.3c0.5-3.9,1.3-7.7,1.9-11.6
		c0.1-0.8,0.4-1.2,1.4-1.2c2.8,0.1,5.6,0.1,8.4,0c3.5-0.1,5.8-2.3,5.8-5.6c0-3.3-2.3-5.4-5.8-5.5c-2.2,0-4.3,0-6.5,0
		c-0.7,0-1-0.1-0.8-0.9c0.6-2.9,1.2-5.9,1.8-8.8c0.1-0.8,0.5-0.8,1.1-0.8c2.6,0,5.2,0,7.8,0c3.4,0,5.8-2.2,5.9-5.5
		c0.1-3-2.1-5.4-5.5-5.6c-2.1-0.1-4.2-0.1-6.2-0.1c-0.8,0-0.9-0.2-0.8-1c0.6-3,1.1-6,1.7-9.1c0.6-3.3-1.1-6-4.3-6.6
		c-3.5-0.7-6.4,1-7.1,4.3c-0.8,3.8-1.4,7.6-2.1,11.4c-0.1,0.8-0.4,1-1.1,1c-2.6,0-5.1-0.1-7.7,0c-1,0-1.2-0.2-1-1.2
		c0.6-2.8,1.2-5.7,1.8-8.6c0.4-1.9,0.3-3.7-1.1-5.2c-1.8-1.8-4-2.3-6.4-1.7c-2.3,0.6-3.5,2.3-4,4.6c-0.6,3.5-1.3,7.1-2,10.6
		c-0.2,1-0.5,1.4-1.7,1.4c-3-0.1-5.9-0.2-8.9,0.1c-2.3,0.2-3.8,1.5-4.5,3.7c-1.2,3.8,1.4,7.3,5.5,7.3C49.2,58.3,51.5,58.3,54,58.3z
		 M459.2,64c0,8.9,0,17.8,0,26.8c0,3.9,2.4,6.4,6.3,6.4c4.6,0,9.3,0,13.9,0c2.1,0,4.2-0.3,6.3-0.9c9.3-2.9,14.9-11.1,14-20.8
		c-0.5-4.8-2.9-8.6-6.3-11.8c-0.7-0.7-0.8-1,0-1.7c5-4.8,6.7-10.6,5-17.3c-2.1-8.2-9.5-13.7-18.4-13.7c-4.8,0-9.7,0-14.5,0
		c-3.8,0-6.2,2.4-6.2,6.2C459.2,46.1,459.2,55.1,459.2,64z M195.5,58.1c0-7.3,0-14.6,0-21.8c0-2.1-0.6-3.8-2.4-4.9
		c-2.1-1.3-4.3-1.4-6.5-0.3c-2.1,1.1-2.8,3-2.8,5.3c0,13.8,0,27.7,0,41.5c0,1-0.1,1.9-0.4,2.8c-1.2,4.2-5.4,6.6-10.2,5.9
		c-4.3-0.6-7.3-4.1-7.3-8.4c0-13.9,0-27.8,0-41.8c0-1.7-0.3-3.2-1.5-4.4c-1.7-1.7-4.6-2.2-6.9-1.2c-2.2,0.9-3.3,2.7-3.3,5.4
		c0,14.2,0,28.4,0,42.6c0,1.7,0.2,3.3,0.7,4.8c2.5,8.6,10.5,14.1,20,14.1c11.1,0.1,21-8.5,20.5-20.6
		C195.3,70.8,195.5,64.4,195.5,58.1z M415.5,64.1c0,9,0,18.1,0,27.1c0,3.4,2.5,6,5.9,6c9.8,0,19.7,0,29.5,0c1.4,0,2.8-0.4,3.9-1.3
		c1.7-1.5,2.3-3.9,1.6-6.1c-0.8-2.2-2.7-3.6-5.1-3.6c-7.6,0-15.2,0-22.8,0c-0.9,0-1.2-0.1-1.2-1.2c0.1-5.1,0.1-10.2,0-15.2
		c0-1,0.3-1.2,1.2-1.2c4.8,0,9.7,0,14.5,0c2.1,0,3.9-0.7,5.1-2.6c2.2-3.8-0.3-8.3-4.7-8.4c-5-0.1-10,0-15,0c-0.8,0-1-0.2-1-1
		c0-4.6,0-9.1,0-13.7c0-0.7,0.2-0.9,0.9-0.9c3.8,0,7.5,0,11.3,0c3.8,0,7.6,0,11.4,0c2.4,0,4.3-0.9,5.3-3.2c1.8-3.9-0.9-7.9-5.3-7.9
		c-9.8,0-19.5,0-29.3,0c-3.6,0-6.1,2.5-6.1,6.1C415.5,46.1,415.5,55.1,415.5,64.1z M130.5,97.7c1.4,0,3.9-0.3,6.4-1
		c8.4-2.5,13.5-9.3,13.3-17.9c-0.1-6.2-3.2-10.8-7.8-14.6c-3.8-3.2-8.1-5.4-12.4-7.7c-2.5-1.3-4.9-2.7-7.1-4.4
		c-3.1-2.4-2.4-7.8,0.9-9.4c4-2,8.1-1.8,12,0.3c1.2,0.6,1.8,1.7,1.9,3.1c0.2,2.7,1.5,4.2,4.1,4.8c3.3,0.8,7.8-1,7.4-6
		c-0.3-3.6-1.7-6.7-4.4-9.2c-7.6-7-21.1-7.2-29.5-0.9c-8,6-8,18.6-1.4,24.5c2.4,2.2,5.1,4,7.9,5.6c3.2,1.9,6.6,3.5,9.8,5.5
		c1.9,1.2,3.8,2.5,5.2,4.4c3.2,4.1,1.6,9.5-3.3,11.1c-2.5,0.8-5.1,0.9-7.7,0.2c-3.6-1-5.5-3.6-5.6-7.7c-0.1-3.4-2.4-5.6-5.7-5.6
		c-3.4-0.1-6,2.1-6,5.5c0,5,1.4,9.5,5,13.1C117.8,96,123.3,97.7,130.5,97.7z M202.4,64.3c0,9.1,0,18.2,0,27.2c0,1,0,1.9,0.4,2.8
		c1,2.4,3.8,3.7,6.6,3.2c2.9-0.5,4.6-2.5,4.6-5.4c0-7.3,0-14.6,0-22c0-0.9,0.2-1.2,1.1-1.1c2.8,0.1,5.5,0,8.3,0
		c2.9,0,5.7-0.6,8.4-1.7c8.5-3.6,13.2-12.6,11.2-21.4c-1.9-8.7-10-15-19.3-15.1c-5,0-10.1,0-15.1,0c-3.9,0-6.2,2.4-6.2,6.3
		C202.4,46.3,202.4,55.3,202.4,64.3z M248.8,64.1c0,9.6,0,19.3,0,28.9c0,2.6,1.6,4.2,4.2,4.2c1.2,0,2.5,0,3.7,0
		c5-0.1,9.9,0.3,14.9-0.2c9.1-0.9,16.4-8.9,16.4-18c0-10,0-20,0-30c0-1.1-0.1-2.2-0.3-3.2c-1.8-8.6-9.3-14.8-18.3-14.8
		c-5.4,0-10.7,0-16.1,0c-3,0-4.4,1.5-4.4,4.4C248.8,44.9,248.8,54.5,248.8,64.1z M292.4,64c0,9.7,0,19.4,0,29.2c0,2.3,1.6,4,3.8,4
		c10.5,0,21,0,31.6,0c2.2,0,3.6-1.4,3.7-3.5c0.1-2.5-1.4-3.9-3.9-3.9c-8.7,0-17.4,0-26.2,0c-1,0-1.3-0.2-1.3-1.2
		c0.1-6.9,0-13.8,0-20.8c0-1,0.3-1.3,1.3-1.3c5.8,0,11.6,0,17.4,0c1.1,0,2.1-0.1,2.9-0.8c1.2-0.9,1.7-2.6,1.2-4.1
		c-0.5-1.5-1.8-2.4-3.5-2.4c-6.1,0-12.2,0-18.2,0c-0.8,0-1.1-0.1-1.1-1c0-6.4,0-12.7,0-19.1c0-0.8,0.2-1.1,1-1c0.3,0,0.6,0,0.8,0
		c8.6,0,17.2,0,25.8,0c2.4,0,3.8-1.4,3.7-3.8c-0.1-2.2-1.5-3.4-4-3.4c-10.3,0-20.6,0-30.8,0c-2.7,0-4.2,1.5-4.2,4.2
		C292.4,44.8,292.4,54.4,292.4,64z"/>
	<path fill="#713FAB" d="M0.2,127.7c178.2,0,356.5,0,534.7,0c0.2,0,0.3,0,0.5,0c1.2,0.2,1.5-0.3,1.5-1.5c0-30.4,0-60.9,0-91.3
		c0-11,0-22.1,0-33.1c0-0.5,0-1,0-1.6c0.5,0.1,0.2,0.5,0.2,0.7c0,3.5,0,7,0,10.6c0,38.4,0,76.8,0,115.2c0,1-0.1,1.3-1.2,1.3
		c-178.2,0-356.4,0-534.6,0C1,127.9,0.5,128.2,0.2,127.7z"/>
	<path fill="#FDFCFD" d="M374.7,58.8c-1,3.9-1.8,7.5-2.7,11.1c-1.9,7.6-3.7,15.3-5.6,22.9c-0.8,3.2-3.1,4.9-6.7,4.9
		c-3.6,0-5.9-1.7-6.7-4.9c-4.4-18.4-8.9-36.8-13.3-55.3c-0.8-3.5,0.8-6.2,4.2-7c3.5-0.8,6.3,0.9,7.1,4.4c2.8,12.3,5.5,24.7,8.3,37
		c0.1,0.4,0.2,0.8,0.4,1.5c1-4.3,2-8.3,3-12.3c2.1-8.7,4.2-17.5,6.3-26.2c0.7-2.9,2.9-4.6,5.9-4.6c3.1,0,5.1,1.6,5.8,4.7
		c3,12.7,6.1,25.4,9.4,38.1c0.3-1.3,0.6-2.6,0.9-3.9c2.6-11.5,5.1-23,7.7-34.5c0.7-3.2,3.5-4.9,7-4.1c3.2,0.7,5.1,3.3,4.3,6.6
		c-2.3,9.9-4.7,19.8-7.1,29.7c-2,8.5-4.2,17-6.1,25.5c-1.1,4.9-5.1,5.9-8.5,5.3c-2.7-0.5-4.5-2-5.2-4.8c-2.7-10.9-5.4-21.8-8-32.7
		C375,59.8,374.9,59.4,374.7,58.8z"/>
	<path fill="#FDFCFD" d="M54,58.3c-2.5,0-4.9,0-7.3,0c-4.1-0.1-6.7-3.5-5.5-7.3c0.7-2.2,2.3-3.5,4.5-3.7c2.9-0.3,5.9-0.1,8.9-0.1
		c1.1,0,1.5-0.4,1.7-1.4c0.6-3.5,1.3-7.1,2-10.6c0.4-2.3,1.7-4,4-4.6c2.4-0.6,4.6-0.1,6.4,1.7c1.4,1.5,1.5,3.3,1.1,5.2
		c-0.6,2.9-1.1,5.7-1.8,8.6c-0.2,1,0,1.2,1,1.2c2.6-0.1,5.1,0,7.7,0c0.7,0,1-0.2,1.1-1c0.6-3.8,1.3-7.6,2.1-11.4
		c0.7-3.3,3.6-5,7.1-4.3c3.2,0.7,4.9,3.4,4.3,6.6c-0.6,3-1.1,6-1.7,9.1c-0.1,0.8,0,1,0.8,1c2.1,0,4.2-0.1,6.2,0.1
		c3.4,0.2,5.6,2.6,5.5,5.6c-0.1,3.2-2.5,5.4-5.9,5.5c-2.6,0-5.2,0-7.8,0c-0.6,0-1,0.1-1.1,0.8c-0.5,2.9-1.2,5.9-1.8,8.8
		c-0.2,0.8,0.1,0.9,0.8,0.9c2.2,0,4.3,0,6.5,0c3.5,0,5.8,2.2,5.8,5.5c0,3.3-2.3,5.5-5.8,5.6c-2.8,0-5.6,0.1-8.4,0
		c-0.9,0-1.2,0.3-1.4,1.2c-0.6,3.9-1.4,7.7-1.9,11.6c-0.7,5.3-6,6.2-9.1,4.3c-2-1.1-3-3.2-2.6-5.5c0.6-3.5,1.3-7,2-10.5
		c0.2-0.9,0-1.1-0.9-1.1c-2.6,0-5.3,0.1-7.9,0c-0.9,0-1.1,0.3-1.2,1.1c-0.7,4.1-1.4,8.2-2.1,12.3c-0.6,3.3-3.5,5.1-6.9,4.5
		c-3.4-0.6-5.2-3.4-4.6-6.7c0.6-3.4,1.2-6.8,1.9-10.2c0.2-0.8-0.1-0.9-0.8-0.9c-2,0-3.9,0.1-5.9,0c-4-0.1-6.4-3.4-5.4-7.1
		c0.6-2.4,2.7-3.9,5.4-3.9c2.5,0,5-0.1,7.4,0c1.1,0,1.5-0.2,1.7-1.3C52.7,64.4,53.4,61.4,54,58.3z M68.9,68.8c1.4,0,2.8,0,4.2,0
		c0.7,0,1-0.1,1.1-0.9c0.5-2.9,1-5.8,1.6-8.7c0.1-0.7,0-0.9-0.7-0.9c-2.8,0-5.7,0-8.5,0c-0.6,0-0.8,0.2-0.9,0.8
		c-0.6,2.9-1.2,5.9-1.8,8.8c-0.1,0.7,0,0.9,0.7,0.9C66,68.7,67.4,68.8,68.9,68.8z"/>
	<path fill="#FDFCFD" d="M459.2,64c0-9,0-17.9,0-26.9c0-3.8,2.4-6.2,6.2-6.2c4.8,0,9.7,0,14.5,0c9,0.1,16.4,5.5,18.4,13.7
		c1.7,6.7,0,12.5-5,17.3c-0.7,0.7-0.7,1,0,1.7c3.3,3.3,5.8,7,6.3,11.8c0.9,9.6-4.7,17.9-14,20.8c-2,0.6-4.1,0.9-6.3,0.9
		c-4.6,0-9.3,0-13.9,0c-3.9,0-6.3-2.5-6.3-6.4C459.2,81.9,459.2,72.9,459.2,64z M470.9,77.4c0,2.6,0,5.2,0,7.8c0,0.6,0,1,0.8,1
		c2.8-0.1,5.6,0.1,8.4-0.1c5-0.3,8-3.9,7.9-9.2c-0.1-4.3-3.9-8-8.3-8.2c-2.6-0.1-5.3,0-7.9,0c-0.7,0-0.9,0.2-0.8,0.9
		C470.9,72.1,470.9,74.8,470.9,77.4z M470.9,49.7c0,2.3,0,4.6,0,7c0,0.4-0.2,0.9,0.5,0.9c3.3-0.1,6.7,0.4,9.9-0.3
		c3.8-0.7,6.3-4.7,5.9-9c-0.4-3.9-3.3-6.3-7.4-6.3c-2.6,0-5.2,0-7.8,0c-0.8,0-1.1,0.2-1.1,1C470.9,45.3,470.9,47.5,470.9,49.7z"/>
	<path fill="#FDFCFD" d="M195.5,58.1c0,6.4-0.2,12.7,0,19.1c0.5,12.1-9.5,20.7-20.5,20.6c-9.6-0.1-17.5-5.6-20-14.1
		c-0.5-1.6-0.7-3.2-0.7-4.8c0-14.2,0-28.4,0-42.6c0-2.7,1.1-4.4,3.3-5.4c2.4-1,5.2-0.5,6.9,1.2c1.2,1.2,1.5,2.7,1.5,4.4
		c0,13.9,0,27.8,0,41.8c0,4.4,3,7.8,7.3,8.4c4.7,0.7,8.9-1.7,10.2-5.9c0.3-0.9,0.4-1.9,0.4-2.8c0-13.8,0-27.7,0-41.5
		c0-2.3,0.7-4.2,2.8-5.3c2.2-1.1,4.4-1,6.5,0.3c1.8,1.1,2.4,2.9,2.4,4.9C195.5,43.5,195.5,50.8,195.5,58.1z"/>
	<path fill="#FDFCFD" d="M415.5,64.1c0-9,0-18,0-27c0-3.6,2.5-6.1,6.1-6.1c9.8,0,19.5,0,29.3,0c4.4,0,7.1,4,5.3,7.9
		c-1,2.3-3,3.1-5.3,3.2c-3.8,0-7.6,0-11.4,0c-3.8,0-7.5,0-11.3,0c-0.7,0-0.9,0.2-0.9,0.9c0,4.6,0,9.1,0,13.7c0,0.8,0.2,1,1,1
		c5,0,10-0.1,15,0c4.4,0,7,4.6,4.7,8.4c-1.1,1.9-2.9,2.6-5.1,2.6c-4.8,0-9.7,0-14.5,0c-0.9,0-1.2,0.2-1.2,1.2
		c0.1,5.1,0.1,10.2,0,15.2c0,1,0.3,1.2,1.2,1.2c7.6,0,15.2,0,22.8,0c2.5,0,4.3,1.4,5.1,3.6c0.8,2.2,0.2,4.7-1.6,6.1
		c-1.1,1-2.5,1.3-3.9,1.3c-9.8,0-19.7,0-29.5,0c-3.4,0-5.9-2.6-5.9-6C415.5,82.1,415.5,73.1,415.5,64.1z"/>
	<path fill="#FDFCFD" d="M130.5,97.7c-7.3,0-12.7-1.7-17-6.2c-3.5-3.7-5-8.1-5-13.1c0-3.4,2.5-5.5,6-5.5c3.4,0.1,5.6,2.2,5.7,5.6
		c0.2,4.1,2,6.7,5.6,7.7c2.6,0.7,5.2,0.6,7.7-0.2c4.9-1.6,6.5-7.1,3.3-11.1c-1.4-1.8-3.3-3.2-5.2-4.4c-3.2-2-6.6-3.6-9.8-5.5
		c-2.8-1.6-5.5-3.4-7.9-5.6c-6.6-5.9-6.6-18.5,1.4-24.5c8.4-6.3,21.9-6.1,29.5,0.9c2.7,2.5,4.1,5.5,4.4,9.2c0.4,5-4.1,6.8-7.4,6
		c-2.6-0.6-4-2.1-4.1-4.8c-0.1-1.4-0.7-2.5-1.9-3.1c-3.9-2.1-8-2.3-12-0.3c-3.2,1.6-4,7-0.9,9.4c2.2,1.7,4.7,3,7.1,4.4
		c4.3,2.3,8.6,4.6,12.4,7.7c4.6,3.8,7.7,8.5,7.8,14.6c0.2,8.6-4.9,15.4-13.3,17.9C134.4,97.4,131.9,97.8,130.5,97.7z"/>
	<path fill="#FDFCFD" d="M202.4,64.3c0-9,0-18.1,0-27.1c0-3.9,2.4-6.3,6.2-6.3c5,0,10.1,0,15.1,0c9.3,0,17.4,6.4,19.3,15.1
		c1.9,8.8-2.8,17.8-11.2,21.4c-2.7,1.2-5.5,1.8-8.4,1.7c-2.8,0-5.5,0-8.3,0c-0.9,0-1.1,0.3-1.1,1.1c0,7.3,0,14.6,0,22
		c0,2.8-1.8,4.8-4.6,5.4c-2.8,0.5-5.6-0.9-6.6-3.2c-0.4-0.9-0.4-1.9-0.4-2.8C202.4,82.5,202.4,73.4,202.4,64.3z M220,42
		c-1.8,0-3.4,0-4.9,0c-0.8,0-1,0.3-1,1c0,4.7,0,9.4,0,14.2c0,0.7,0.2,1,0.9,0.9c2.8,0,5.7,0,8.5,0c4.2,0,7.9-3.2,8.3-7.2
		c0.4-4.2-2.4-7.9-6.7-8.7C223.3,41.8,221.5,42.1,220,42z"/>
	<path fill="#FDFCFD" d="M248.8,64.1c0-9.6,0-19.2,0-28.8c0-2.9,1.5-4.4,4.4-4.4c5.4,0,10.7,0,16.1,0c9,0.1,16.5,6.2,18.3,14.8
		c0.2,1.1,0.3,2.1,0.3,3.2c0,10,0,20,0,30c0,9.1-7.2,17.1-16.4,18c-4.9,0.5-9.9,0.1-14.9,0.2c-1.2,0-2.5,0-3.7,0
		c-2.6,0-4.2-1.6-4.2-4.2C248.8,83.4,248.8,73.7,248.8,64.1z M256.5,64c0,8.2,0,16.5,0,24.7c0,0.5-0.3,1.2,0.7,1.1
		c4.3,0,8.6,0.1,12.8-0.1c5.7-0.3,10.2-5.1,10.3-10.7c0.1-10,0.1-20,0-30c0-5.5-4.2-10.1-9.7-10.7c-4.3-0.4-8.6-0.1-12.9-0.2
		c-1,0-1.2,0.3-1.2,1.2C256.5,47.6,256.5,55.8,256.5,64z"/>
	<path fill="#FDFCFD" d="M292.4,64c0-9.6,0-19.2,0-28.8c0-2.7,1.5-4.2,4.2-4.2c10.3,0,20.6,0,30.8,0c2.5,0,4,1.3,4,3.4
		c0.1,2.4-1.3,3.8-3.7,3.8c-8.6,0-17.2,0-25.8,0c-0.3,0-0.6,0-0.8,0c-0.8-0.1-1,0.2-1,1c0,6.4,0,12.7,0,19.1c0,0.9,0.3,1,1.1,1
		c6.1,0,12.2,0,18.2,0c1.7,0,3,0.9,3.5,2.4c0.5,1.5,0,3.1-1.2,4.1c-0.9,0.7-1.9,0.8-2.9,0.8c-5.8,0-11.6,0-17.4,0
		c-1,0-1.3,0.3-1.3,1.3c0,6.9,0,13.8,0,20.8c0,1,0.3,1.2,1.3,1.2c8.7,0,17.4,0,26.2,0c2.6,0,4,1.4,3.9,3.9c-0.1,2-1.4,3.5-3.7,3.5
		c-10.5,0-21,0-31.6,0c-2.3,0-3.8-1.7-3.8-4C292.4,83.4,292.4,73.7,292.4,64z"/>
	<path fill="#430091" d="M68.9,68.8c-1.4,0-2.9,0-4.3,0c-0.7,0-0.9-0.3-0.7-0.9c0.6-2.9,1.2-5.9,1.8-8.8c0.1-0.6,0.3-0.8,0.9-0.8
		c2.8,0,5.7,0,8.5,0c0.7,0,0.9,0.2,0.7,0.9c-0.6,2.9-1.1,5.8-1.6,8.7c-0.1,0.7-0.4,0.9-1.1,0.9C71.7,68.7,70.3,68.8,68.9,68.8z"/>
	<path fill="#5C2B82" d="M470.9,77.4c0-2.6,0-5.3,0-7.9c0-0.7,0.1-0.9,0.8-0.9c2.6,0,5.3,0,7.9,0c4.5,0.1,8.2,3.9,8.3,8.2
		c0.1,5.3-2.9,8.9-7.9,9.2c-2.8,0.2-5.6,0.1-8.4,0.1c-0.8,0-0.8-0.4-0.8-1C470.9,82.6,470.9,80,470.9,77.4z"/>
	<path fill="#5C2B82" d="M470.9,49.7c0-2.2,0-4.5,0-6.7c0-0.9,0.3-1,1.1-1c2.6,0.1,5.2,0,7.8,0c4.1,0,7,2.5,7.4,6.3
		c0.5,4.2-2,8.2-5.9,9c-3.3,0.6-6.6,0.2-9.9,0.3c-0.7,0-0.5-0.5-0.5-0.9C470.9,54.4,470.9,52.1,470.9,49.7z"/>
	<path fill="#5C2B82" d="M220,42c1.5,0.1,3.4-0.2,5.2,0.2c4.3,0.9,7.1,4.5,6.7,8.7c-0.4,4-4,7.2-8.3,7.2c-2.8,0-5.7,0-8.5,0
		c-0.7,0-0.9-0.2-0.9-0.9c0-4.7,0-9.4,0-14.2c0-0.8,0.2-1.1,1-1C216.6,42,218.1,42,220,42z"/>
	<path fill="#5C2B82" d="M256.5,64c0-8.2,0-16.4,0-24.6c0-0.9,0.2-1.2,1.2-1.2c4.3,0.1,8.6-0.2,12.9,0.2c5.5,0.6,9.7,5.2,9.7,10.7
		c0.1,10,0.1,20,0,30c0,5.6-4.6,10.4-10.3,10.7c-4.3,0.2-8.6,0-12.8,0.1c-1,0-0.7-0.7-0.7-1.1C256.5,80.4,256.5,72.2,256.5,64z"/>
</g>
</svg>
